<svg viewBox="0 0 900 560" xmlns="http://www.w3.org/2000/svg" font-family="'Segoe UI', system-ui, -apple-system, sans-serif">
  <!-- Background -->
  <rect width="900" height="560" fill="#f8fafc" rx="12"/>

  <!-- Title -->
  <text x="450" y="34" text-anchor="middle" font-size="17" font-weight="700" fill="#0f172a">CrewForge — System Architecture</text>

  <!-- ═══════════════════ BROWSER LAYER ═══════════════════ -->
  <rect x="30" y="54" width="840" height="100" rx="10" fill="#ffffff" stroke="#3b82f6" stroke-width="1.5"/>
  <text x="46" y="74" font-size="11" font-weight="700" fill="#3b82f6" letter-spacing="1">BROWSER  —  React 19 + Vite + Tailwind v4 + XyFlow</text>

  <!-- Page boxes -->
  <rect x="46"  y="83" width="96" height="56" rx="6" fill="#eff6ff" stroke="#bfdbfe" stroke-width="1"/>
  <text x="94"  y="106" text-anchor="middle" font-size="10" font-weight="600" fill="#1d4ed8">Dashboard</text>
  <text x="94"  y="120" text-anchor="middle" font-size="9" fill="#3b82f6">workflows · stats</text>

  <rect x="152" y="83" width="96" height="56" rx="6" fill="#eff6ff" stroke="#bfdbfe" stroke-width="1"/>
  <text x="200" y="106" text-anchor="middle" font-size="10" font-weight="600" fill="#1d4ed8">Builder</text>
  <text x="200" y="120" text-anchor="middle" font-size="9" fill="#3b82f6">canvas · inspector</text>

  <rect x="258" y="83" width="96" height="56" rx="6" fill="#eff6ff" stroke="#bfdbfe" stroke-width="1"/>
  <text x="306" y="106" text-anchor="middle" font-size="10" font-weight="600" fill="#1d4ed8">Runs</text>
  <text x="306" y="120" text-anchor="middle" font-size="9" fill="#3b82f6">timeline · batch · eval</text>

  <rect x="364" y="83" width="96" height="56" rx="6" fill="#eff6ff" stroke="#bfdbfe" stroke-width="1"/>
  <text x="412" y="106" text-anchor="middle" font-size="10" font-weight="600" fill="#1d4ed8">Tools</text>
  <text x="412" y="120" text-anchor="middle" font-size="9" fill="#3b82f6">catalog · MCP market</text>

  <rect x="470" y="83" width="96" height="56" rx="6" fill="#eff6ff" stroke="#bfdbfe" stroke-width="1"/>
  <text x="518" y="106" text-anchor="middle" font-size="10" font-weight="600" fill="#1d4ed8">Knowledge</text>
  <text x="518" y="120" text-anchor="middle" font-size="9" fill="#3b82f6">RAG · graph viz</text>

  <rect x="576" y="83" width="96" height="56" rx="6" fill="#eff6ff" stroke="#bfdbfe" stroke-width="1"/>
  <text x="624" y="106" text-anchor="middle" font-size="10" font-weight="600" fill="#1d4ed8">Settings</text>
  <text x="624" y="120" text-anchor="middle" font-size="9" fill="#3b82f6">models · providers</text>

  <rect x="682" y="83" width="96" height="56" rx="6" fill="#eff6ff" stroke="#bfdbfe" stroke-width="1"/>
  <text x="730" y="106" text-anchor="middle" font-size="10" font-weight="600" fill="#1d4ed8">Code</text>
  <text x="730" y="120" text-anchor="middle" font-size="9" fill="#3b82f6">export viewer</text>

  <!-- Arrow: Browser → API -->
  <line x1="450" y1="154" x2="450" y2="186" stroke="#94a3b8" stroke-width="1.5" stroke-dasharray="4,3"/>
  <polygon points="444,183 450,193 456,183" fill="#94a3b8"/>
  <text x="462" y="173" font-size="9" fill="#64748b">REST + SSE</text>

  <!-- ═══════════════════ FASTAPI LAYER ═══════════════════ -->
  <rect x="30" y="194" width="840" height="110" rx="10" fill="#ffffff" stroke="#8b5cf6" stroke-width="1.5"/>
  <text x="46" y="214" font-size="11" font-weight="700" fill="#8b5cf6" letter-spacing="1">FASTAPI CONTROL PLANE  —  ~50 REST endpoints · SSE event streams</text>

  <rect x="46"  y="222" width="110" height="68" rx="6" fill="#faf5ff" stroke="#ddd6fe" stroke-width="1"/>
  <text x="101" y="244" text-anchor="middle" font-size="10" font-weight="600" fill="#6d28d9">Workspaces</text>
  <text x="101" y="259" text-anchor="middle" font-size="8.5" fill="#7c3aed">CRUD · export</text>
  <text x="101" y="272" text-anchor="middle" font-size="8.5" fill="#7c3aed">duplicate · code</text>

  <rect x="166" y="222" width="110" height="68" rx="6" fill="#faf5ff" stroke="#ddd6fe" stroke-width="1"/>
  <text x="221" y="244" text-anchor="middle" font-size="10" font-weight="600" fill="#6d28d9">Runs</text>
  <text x="221" y="259" text-anchor="middle" font-size="8.5" fill="#7c3aed">start · cancel · HITL</text>
  <text x="221" y="272" text-anchor="middle" font-size="8.5" fill="#7c3aed">events · SSE stream</text>

  <rect x="286" y="222" width="110" height="68" rx="6" fill="#faf5ff" stroke="#ddd6fe" stroke-width="1"/>
  <text x="341" y="244" text-anchor="middle" font-size="10" font-weight="600" fill="#6d28d9">Batches · Evals</text>
  <text x="341" y="259" text-anchor="middle" font-size="8.5" fill="#7c3aed">CSV runs · scoring</text>
  <text x="341" y="272" text-anchor="middle" font-size="8.5" fill="#7c3aed">LLM-as-judge</text>

  <rect x="406" y="222" width="110" height="68" rx="6" fill="#faf5ff" stroke="#ddd6fe" stroke-width="1"/>
  <text x="461" y="244" text-anchor="middle" font-size="10" font-weight="600" fill="#6d28d9">Schedules</text>
  <text x="461" y="259" text-anchor="middle" font-size="8.5" fill="#7c3aed">cron daemon</text>
  <text x="461" y="272" text-anchor="middle" font-size="8.5" fill="#7c3aed">webhooks</text>

  <rect x="526" y="222" width="110" height="68" rx="6" fill="#faf5ff" stroke="#ddd6fe" stroke-width="1"/>
  <text x="581" y="244" text-anchor="middle" font-size="10" font-weight="600" fill="#6d28d9">Knowledge</text>
  <text x="581" y="259" text-anchor="middle" font-size="8.5" fill="#7c3aed">ingest · search</text>
  <text x="581" y="272" text-anchor="middle" font-size="8.5" fill="#7c3aed">graph build</text>

  <rect x="646" y="222" width="110" height="68" rx="6" fill="#faf5ff" stroke="#ddd6fe" stroke-width="1"/>
  <text x="701" y="244" text-anchor="middle" font-size="10" font-weight="600" fill="#6d28d9">LLMs · MCP</text>
  <text x="701" y="259" text-anchor="middle" font-size="8.5" fill="#7c3aed">connections · registry</text>
  <text x="701" y="272" text-anchor="middle" font-size="8.5" fill="#7c3aed">security scan</text>

  <rect x="766" y="222" width="88" height="68" rx="6" fill="#faf5ff" stroke="#ddd6fe" stroke-width="1"/>
  <text x="810" y="244" text-anchor="middle" font-size="10" font-weight="600" fill="#6d28d9">Tools</text>
  <text x="810" y="259" text-anchor="middle" font-size="8.5" fill="#7c3aed">103 built-ins</text>
  <text x="810" y="272" text-anchor="middle" font-size="8.5" fill="#7c3aed">config · secrets</text>

  <!-- Arrows: API → bottom layer -->
  <line x1="200" y1="304" x2="200" y2="336" stroke="#94a3b8" stroke-width="1.5" stroke-dasharray="4,3"/>
  <polygon points="194,333 200,343 206,333" fill="#94a3b8"/>

  <line x1="420" y1="304" x2="420" y2="336" stroke="#94a3b8" stroke-width="1.5" stroke-dasharray="4,3"/>
  <polygon points="414,333 420,343 426,333" fill="#94a3b8"/>

  <line x1="600" y1="304" x2="600" y2="336" stroke="#94a3b8" stroke-width="1.5" stroke-dasharray="4,3"/>
  <polygon points="594,333 600,343 606,333" fill="#94a3b8"/>

  <line x1="780" y1="304" x2="780" y2="336" stroke="#94a3b8" stroke-width="1.5" stroke-dasharray="4,3"/>
  <polygon points="774,333 780,343 786,333" fill="#94a3b8"/>

  <!-- ═══════════════════ CORE MODULES ROW ═══════════════════ -->

  <!-- SQLite Store -->
  <rect x="30" y="344" width="190" height="96" rx="10" fill="#ffffff" stroke="#10b981" stroke-width="1.5"/>
  <text x="125" y="364" text-anchor="middle" font-size="11" font-weight="700" fill="#059669">SQLite Store</text>
  <text x="125" y="382" text-anchor="middle" font-size="9" fill="#047857">workspaces · runs · events</text>
  <text x="125" y="396" text-anchor="middle" font-size="9" fill="#047857">schedules · batches · evals</text>
  <text x="125" y="410" text-anchor="middle" font-size="9" fill="#047857">KBs · LLMs · MCP · settings</text>
  <text x="125" y="426" text-anchor="middle" font-size="9" fill="#6ee7b7">WAL mode · JSON blobs</text>

  <!-- CrewAI Runner -->
  <rect x="234" y="344" width="306" height="96" rx="10" fill="#ffffff" stroke="#f97316" stroke-width="1.5"/>
  <text x="387" y="364" text-anchor="middle" font-size="11" font-weight="700" fill="#ea580c">CrewAI Execution Engine</text>
  <rect x="248" y="374" width="84" height="52" rx="5" fill="#fff7ed" stroke="#fed7aa" stroke-width="1"/>
  <text x="290" y="393" text-anchor="middle" font-size="9" font-weight="600" fill="#c2410c">Compiler</text>
  <text x="290" y="407" text-anchor="middle" font-size="8" fill="#ea580c">manifest · adapter</text>
  <text x="290" y="419" text-anchor="middle" font-size="8" fill="#ea580c">exporter</text>
  <rect x="342" y="374" width="84" height="52" rx="5" fill="#fff7ed" stroke="#fed7aa" stroke-width="1"/>
  <text x="384" y="393" text-anchor="middle" font-size="9" font-weight="600" fill="#c2410c">Runner</text>
  <text x="384" y="407" text-anchor="middle" font-size="8" fill="#ea580c">event listener</text>
  <text x="384" y="419" text-anchor="middle" font-size="8" fill="#ea580c">HITL · cancel</text>
  <rect x="436" y="374" width="90" height="52" rx="5" fill="#fff7ed" stroke="#fed7aa" stroke-width="1"/>
  <text x="481" y="393" text-anchor="middle" font-size="9" font-weight="600" fill="#c2410c">FakeLLM</text>
  <text x="481" y="407" text-anchor="middle" font-size="8" fill="#ea580c">dry-run mock</text>
  <text x="481" y="419" text-anchor="middle" font-size="8" fill="#ea580c">no key needed</text>

  <!-- Knowledge -->
  <rect x="554" y="344" width="186" height="96" rx="10" fill="#ffffff" stroke="#8b5cf6" stroke-width="1.5"/>
  <text x="647" y="364" text-anchor="middle" font-size="11" font-weight="700" fill="#7c3aed">Knowledge</text>
  <text x="647" y="382" text-anchor="middle" font-size="9" fill="#6d28d9">fastembed  (bge-small, keyless)</text>
  <text x="647" y="396" text-anchor="middle" font-size="9" fill="#6d28d9">Kuzu graph  (entities · relations)</text>
  <text x="647" y="410" text-anchor="middle" font-size="9" fill="#6d28d9">ingest: text · PDF · URL · GitHub</text>
  <text x="647" y="424" text-anchor="middle" font-size="9" fill="#a78bfa">hybrid retrieval: vector + graph</text>

  <!-- Secrets -->
  <rect x="754" y="344" width="116" height="96" rx="10" fill="#ffffff" stroke="#64748b" stroke-width="1.5"/>
  <text x="812" y="364" text-anchor="middle" font-size="11" font-weight="700" fill="#475569">Secrets</text>
  <text x="812" y="382" text-anchor="middle" font-size="9" fill="#334155">Fernet encryption</text>
  <text x="812" y="396" text-anchor="middle" font-size="9" fill="#334155">keys at rest</text>
  <text x="812" y="410" text-anchor="middle" font-size="9" fill="#334155">secret.key (0600)</text>
  <text x="812" y="424" text-anchor="middle" font-size="9" fill="#94a3b8">gitignored</text>

  <!-- Arrow down to external -->
  <line x1="387" y1="440" x2="387" y2="472" stroke="#94a3b8" stroke-width="1.5" stroke-dasharray="4,3"/>
  <polygon points="381,469 387,479 393,469" fill="#94a3b8"/>

  <!-- ═══════════════════ EXTERNAL LAYER ═══════════════════ -->
  <rect x="30" y="480" width="840" height="60" rx="10" fill="#ffffff" stroke="#e2e8f0" stroke-width="1.5"/>
  <text x="450" y="500" text-anchor="middle" font-size="10" font-weight="700" fill="#64748b" letter-spacing="1">EXTERNAL  —  any OpenAI-compatible provider</text>

  <text x="110" y="524" text-anchor="middle" font-size="10" fill="#0f172a">OpenAI</text>
  <text x="210" y="524" text-anchor="middle" font-size="10" fill="#0f172a">Anthropic</text>
  <text x="310" y="524" text-anchor="middle" font-size="10" fill="#0f172a">MiniMax</text>
  <text x="410" y="524" text-anchor="middle" font-size="10" fill="#0f172a">Ollama</text>
  <text x="510" y="524" text-anchor="middle" font-size="10" fill="#0f172a">Groq</text>
  <text x="610" y="524" text-anchor="middle" font-size="10" fill="#0f172a">MCP Servers</text>
  <text x="730" y="524" text-anchor="middle" font-size="10" fill="#0f172a">+ any LiteLLM provider</text>

  <!-- separator dots -->
  <text x="160" y="524" text-anchor="middle" font-size="10" fill="#cbd5e1">·</text>
  <text x="260" y="524" text-anchor="middle" font-size="10" fill="#cbd5e1">·</text>
  <text x="360" y="524" text-anchor="middle" font-size="10" fill="#cbd5e1">·</text>
  <text x="460" y="524" text-anchor="middle" font-size="10" fill="#cbd5e1">·</text>
  <text x="560" y="524" text-anchor="middle" font-size="10" fill="#cbd5e1">·</text>
  <text x="672" y="524" text-anchor="middle" font-size="10" fill="#cbd5e1">·</text>
</svg>
